<?xml version="1.0" encoding="UTF-8"?>
<svg id="Capa_2" data-name="Capa 2" xmlns="http://www.w3.org/2000/svg" viewBox="0 0 125.49 124.35">
  <defs>
    <style>
      .cls-1 {
        fill: #0049ff;
      }

      .cls-2 {
        fill: #06fc99;
      }

      .cls-3 {
        fill: #ff0098;
      }
    </style>
  </defs>
  <g id="Capa_1-2" data-name="Capa 1">
    <g id="Capa_2-2" data-name="Capa 2">
      <g id="Capa_5" data-name="Capa 5">
        <g>
          <g>
            <path class="cls-1" d="m100.29,18.35h-4.7c-.22,0-.33-.11-.33-.32l-.04-4.64h-9.69c-.25,0-.38-.13-.38-.38l-.02-4.32c0-.2-.17-.35-.36-.35h-4.84l-4.85.03-.02,5.01-5.06-.03v-4.75c0-.17-.09-.25-.25-.25h-4.79V3.31h20.16l.08,5.02,9.64.02c.25,0,.37.12.37.37l.06,4.38c0,.16.13.29.29.29h4.66l.08,4.97h-.01Z"/>
            <path class="cls-1" d="m75.06,13.37l5.03.07.02,4.97h4.64c.2.02.36.18.37.38l.03,4.29c0,.2.17.37.37.37l4.27.02c.22,0,.39.18.39.39l-.13,9.68h-4.55c-.24,0-.36-.13-.36-.37v-9.72h-5.04v-5.04h-4.79c-.12,0-.22-.1-.23-.22v-4.83h-.02Z"/>
            <path class="cls-1" d="m100.29,18.35l4.56.04c.25,0,.45.21.46.46l.07,4.39c-.06.14-.16.21-.32.22-1.65.05-3.24.04-4.77-.05v-5.06h0Z"/>
            <path class="cls-1" d="m105.37,23.43l4.98.03.02,4.96-4.96.05-.04-5.04h0Z"/>
            <path class="cls-1" d="m110.36,28.42l5.03.06.02,10.03-5.01-.03-.04-10.06Z"/>
            <path class="cls-1" d="m34.7,88.98l30.25.04v-5.02h10.1v-5.04h5.04v-5.05h5.04v-10.09h5.02v-30.24l5.05.03v30.21h-5.03v10.09l-5.04-.02v5.06h-4.72c-.21-.01-.31.09-.32.3v4.36c-.01.21-.18.38-.39.38h-4.28c-.21-.02-.38.16-.38.37v4.29c0,.25-.13.38-.38.38l-9.34.03c-.2,0-.36.16-.36.36v4.65h-29.96c-.16,0-.28-.15-.29-.33l-.02-4.77h0Z"/>
            <path class="cls-1" d="m115.41,38.51l5.03.08.04,10.06,5.01.05v25.21h-5.04v15.14h-5.04v10.08h-5.04v4.67c0,.21-.17.38-.38.38h-4.67v5.05l-5.03-.02v4.67c0,.21-.17.38-.38.38l-9.72.03v5.01l-15.14.03v5.02h-25.22l-.03-4.94c.04-.19.13-.22.28-.11,8.31,0,16.62-.01,24.93-.03l.08-5.01,14.71-.02c.2,0,.36-.16.37-.36v-4.66h9.72c.2,0,.37-.17.37-.37l.02-4.67h5.03v-5.05h5.05v-10.08h5.02l.04-14.63c0-.33.16-.49.49-.49h4.53v-25.24h-5l-.04-10.16v-.02h.01Z"/>
            <path class="cls-1" d="m14.56,73.67s-.04.09-.08.14c-.06.07-.13.11-.23.11h-4.76l-.02,4.03v5.99l-4.71.03c-.23,0-.35-.11-.35-.35v-19.79h5.04v5.05l4.78-.02c.14,0,.25.11.26.25l.05,4.57h.02,0Z"/>
            <path class="cls-1" d="m14.66,73.88l4.62.02c.16,0,.29.13.29.29l.05,4.53c-.09.13-.27.2-.56.2-1.78.06-3.27.04-4.48-.06l-.06-4.92s0-.02.02-.03c.04-.02.08-.03.12-.04h0Z"/>
            <path class="cls-1" d="m19.71,78.93l4.59.03c.16,0,.28.13.29.28l.05,4.71h-4.78c-.16,0-.24-.08-.25-.24-.05-1.59-.06-3.16-.04-4.71,0-.02,0-.03.02-.03.04-.02.08-.03.12-.05h0Z"/>
            <path class="cls-1" d="m9.48,83.93l5.03.04v10.1h-5.03v-10.14h0Z"/>
            <path class="cls-1" d="m24.63,83.94l10.04.03.04,5-9.76.03c-.17,0-.31-.14-.31-.31v-4.75h-.01Z"/>
            <path class="cls-1" d="m14.51,94.08l5.01.03v5l-4.67-.05c-.18,0-.26-.09-.27-.27l-.08-4.72h.01Z"/>
            <path class="cls-1" d="m19.56,99.12l4.64.03c.22,0,.39.18.39.4v4.62h-5.01l-.02-5.05h0Z"/>
            <path class="cls-1" d="m24.63,104.16l4.63.05c.23,0,.34.12.34.34v4.67l-4.59-.02c-.18,0-.27-.1-.28-.27l-.1-4.76h0Z"/>
            <path class="cls-1" d="m29.65,109.21l9.72.03c.19,0,.34.16.34.35l-.09,4.67-9.91-.04-.05-5h0Z"/>
            <path class="cls-1" d="m49.7,119.31h-9.96l-.02-4.94c.02-.18.1-.22.27-.12,3.29,0,6.53.02,9.74.03.02,0,.04.02.04.05l-.08,4.98h0Z"/>
          </g>
          <g>
            <path class="cls-3" d="m95.88,15.04h-4.7c-.22,0-.33-.11-.33-.32l-.04-4.64h-9.69c-.25,0-.38-.13-.38-.38l-.02-4.32c0-.2-.17-.35-.36-.35h-4.84l-4.85.03-.02,5.01-5.06-.03v-4.75c0-.17-.09-.25-.25-.25h-4.79V0h20.16l.08,5.02,9.64.02c.25,0,.37.12.37.37l.06,4.38c0,.16.13.29.29.29h4.66l.08,4.97h-.01Z"/>
            <path class="cls-3" d="m70.66,10.07l5.03.07.02,4.97h4.64c.2.02.36.18.37.38l.03,4.29c0,.2.17.37.37.37l4.27.02c.22,0,.39.18.39.39l-.13,9.68h-4.55c-.24,0-.36-.13-.36-.37v-9.72h-5.04v-5.04h-4.79c-.12,0-.22-.1-.23-.22v-4.83h-.02Z"/>
            <path class="cls-3" d="m95.88,15.04l4.56.04c.25,0,.45.21.46.46l.07,4.39c-.06.14-.16.21-.32.22-1.65.05-3.24.04-4.77-.05v-5.06h0Z"/>
            <path class="cls-3" d="m100.96,20.12l4.98.03.02,4.96-4.96.05-.04-5.04h0Z"/>
            <path class="cls-3" d="m105.95,25.12l5.03.06.02,10.03-5.01-.03-.04-10.06Z"/>
            <path class="cls-3" d="m30.29,85.67l30.25.04v-5.02h10.1v-5.04h5.04v-5.05h5.04v-10.09h5.02v-30.24l5.05.03v30.21h-5.03v10.09l-5.04-.02v5.06h-4.72c-.21-.01-.31.09-.32.3v4.36c-.01.21-.18.38-.39.38h-4.28c-.21-.02-.38.16-.38.37v4.29c0,.25-.13.38-.38.38l-9.34.03c-.2,0-.36.16-.36.36v4.65h-29.96c-.16,0-.28-.15-.29-.33l-.02-4.77h0Z"/>
            <path class="cls-3" d="m111,35.21l5.03.08.04,10.06,5.01.05v25.21h-5.04v15.14h-5.04v10.08h-5.04v4.67c0,.21-.17.38-.38.38h-4.67v5.05l-5.03-.02v4.67c0,.21-.17.38-.38.38l-9.72.03v5.01l-15.14.03v5.02h-25.22l-.03-4.94c.04-.19.13-.22.28-.11,8.31,0,16.62-.01,24.93-.03l.08-5.01,14.71-.02c.2,0,.36-.16.37-.36v-4.66h9.72c.2,0,.37-.17.37-.37l.02-4.67h5.03v-5.05h5.05v-10.08h5.02l.04-14.63c0-.33.16-.49.49-.49h4.53v-25.24h-5l-.04-10.16v-.02h.01Z"/>
            <path class="cls-3" d="m10.15,70.37s-.04.09-.08.14c-.06.07-.13.11-.23.11h-4.76l-.02,4.03v5.99l-4.71.03c-.23,0-.35-.11-.35-.35v-19.79h5.04v5.05l4.78-.02c.14,0,.25.11.26.25l.05,4.57h.02,0Z"/>
            <path class="cls-3" d="m10.25,70.57l4.62.02c.16,0,.29.13.29.29l.05,4.53c-.09.13-.27.2-.56.2-1.78.06-3.27.04-4.48-.06l-.06-4.92s0-.02.02-.03c.04-.02.08-.03.12-.04h0Z"/>
            <path class="cls-3" d="m15.3,75.62l4.59.03c.16,0,.28.13.29.28l.05,4.71h-4.78c-.16,0-.24-.08-.25-.24-.05-1.59-.06-3.16-.04-4.71,0-.02,0-.03.02-.03.04-.02.08-.03.12-.05h0Z"/>
            <path class="cls-3" d="m5.07,80.63l5.03.04v10.1h-5.03v-10.14h0Z"/>
            <path class="cls-3" d="m20.22,80.64l10.04.03.04,5-9.76.03c-.17,0-.31-.14-.31-.31v-4.75h-.01Z"/>
            <path class="cls-3" d="m10.1,90.77l5.01.03v5l-4.67-.05c-.18,0-.26-.09-.27-.27l-.08-4.72h.01Z"/>
            <path class="cls-3" d="m15.15,95.82l4.64.03c.22,0,.39.18.39.4v4.62h-5.01l-.02-5.05h0Z"/>
            <path class="cls-3" d="m20.23,100.86l4.63.05c.23,0,.34.12.34.34v4.67l-4.59-.02c-.18,0-.27-.1-.28-.27l-.1-4.76h0Z"/>
            <path class="cls-3" d="m25.24,105.91l9.72.03c.19,0,.34.16.34.35l-.09,4.67-9.91-.04-.05-5h0Z"/>
            <path class="cls-3" d="m45.29,116.01h-9.96l-.02-4.94c.02-.18.1-.22.27-.12,3.29,0,6.53.02,9.74.03.02,0,.04.02.04.05l-.08,4.98h0Z"/>
          </g>
          <g>
            <path class="cls-2" d="m98.09,17.24h-4.7c-.22,0-.33-.11-.33-.32l-.04-4.64h-9.69c-.25,0-.38-.13-.38-.38l-.02-4.32c0-.2-.17-.35-.36-.35h-4.84l-4.85.03-.02,5.01-5.06-.03v-4.75c0-.17-.09-.25-.25-.25h-4.79V2.2h20.16l.08,5.02,9.64.02c.25,0,.37.12.37.37l.06,4.38c0,.16.13.29.29.29h4.66l.08,4.97h-.01Z"/>
            <path class="cls-2" d="m72.86,12.27l5.03.07.02,4.97h4.64c.2.02.36.18.37.38l.03,4.29c0,.2.17.37.37.37l4.27.02c.22,0,.39.18.39.39l-.13,9.68h-4.55c-.24,0-.36-.13-.36-.37v-9.72h-5.04v-5.04h-4.79c-.12,0-.22-.1-.23-.22v-4.83h-.02Z"/>
            <path class="cls-2" d="m98.09,17.24l4.56.04c.25,0,.45.21.46.46l.07,4.39c-.06.14-.16.21-.32.22-1.65.05-3.24.04-4.77-.05v-5.06h0Z"/>
            <path class="cls-2" d="m103.16,22.33l4.98.03.02,4.96-4.96.05-.04-5.04h0Z"/>
            <path class="cls-2" d="m108.16,27.32l5.03.06.02,10.03-5.01-.03-.04-10.06Z"/>
            <path class="cls-2" d="m32.5,87.88l30.25.04v-5.02h10.1v-5.04h5.04v-5.05h5.04v-10.09h5.02v-30.24l5.05.03v30.21h-5.03v10.09l-5.04-.02v5.06h-4.72c-.21-.01-.31.09-.32.3v4.36c-.01.21-.18.38-.39.38h-4.28c-.21-.02-.38.16-.38.37v4.29c0,.25-.13.38-.38.38l-9.34.03c-.2,0-.36.16-.36.36v4.65h-29.96c-.16,0-.28-.15-.29-.33l-.02-4.77h0Z"/>
            <path class="cls-2" d="m113.21,37.41l5.03.08.04,10.06,5.01.05v25.21h-5.04v15.14h-5.04v10.08h-5.04v4.67c0,.21-.17.38-.38.38h-4.67v5.05l-5.03-.02v4.67c0,.21-.17.38-.38.38l-9.72.03v5.01l-15.14.03v5.02h-25.22l-.03-4.94c.04-.19.13-.22.28-.11,8.31,0,16.62-.01,24.93-.03l.08-5.01,14.71-.02c.2,0,.36-.16.37-.36v-4.66h9.72c.2,0,.37-.17.37-.37l.02-4.67h5.03v-5.05h5.05v-10.08h5.02l.04-14.63c0-.33.16-.49.49-.49h4.53v-25.24h-5l-.04-10.16v-.02h.01Z"/>
            <path class="cls-2" d="m12.36,72.57s-.04.09-.08.14c-.06.07-.13.11-.23.11h-4.76l-.02,4.03v5.99l-4.71.03c-.23,0-.35-.11-.35-.35v-19.79h5.04v5.05l4.78-.02c.14,0,.25.11.26.25l.05,4.57h.02,0Z"/>
            <path class="cls-2" d="m12.45,72.78l4.62.02c.16,0,.29.13.29.29l.05,4.53c-.09.13-.27.2-.56.2-1.78.06-3.27.04-4.48-.06l-.06-4.92s0-.02.02-.03c.04-.02.08-.03.12-.04h0Z"/>
            <path class="cls-2" d="m17.5,77.82l4.59.03c.16,0,.28.13.29.28l.05,4.71h-4.78c-.16,0-.24-.08-.25-.24-.05-1.59-.06-3.16-.04-4.71,0-.02,0-.03.02-.03.04-.02.08-.03.12-.05h0Z"/>
            <path class="cls-2" d="m7.27,82.83l5.03.04v10.1h-5.03v-10.14h0Z"/>
            <path class="cls-2" d="m22.43,82.84l10.04.03.04,5-9.76.03c-.17,0-.31-.14-.31-.31v-4.75h-.01Z"/>
            <path class="cls-2" d="m12.3,92.98l5.01.03v5l-4.67-.05c-.18,0-.26-.09-.27-.27l-.08-4.72h.01Z"/>
            <path class="cls-2" d="m17.35,98.02l4.64.03c.22,0,.39.18.39.4v4.62h-5.01l-.02-5.05h0Z"/>
            <path class="cls-2" d="m22.43,103.06l4.63.05c.23,0,.34.12.34.34v4.67l-4.59-.02c-.18,0-.27-.1-.28-.27l-.1-4.76h0Z"/>
            <path class="cls-2" d="m27.44,108.11l9.72.03c.19,0,.34.16.34.35l-.09,4.67-9.91-.04-.05-5h0Z"/>
            <path class="cls-2" d="m47.49,118.21h-9.96l-.02-4.94c.02-.18.1-.22.27-.12,3.29,0,6.53.02,9.74.03.02,0,.04.02.04.05l-.08,4.98h0Z"/>
          </g>
        </g>
      </g>
    </g>
  </g>
</svg>