<?xml version="1.0" encoding="UTF-8"?>
<svg id="Capa_2" data-name="Capa 2" xmlns="http://www.w3.org/2000/svg" viewBox="0 0 965.54 1034.79">
  <defs>
    <style>
      .cls-1 {
        fill: rgba(10, 255, 156, .1);
      }
    </style>
  </defs>
  <g id="Capa_1-2" data-name="Capa 1">
    <g>
      <path class="cls-1" d="m964.46,1028.28c-.65-4.49-1.41-9.05-2.28-13.69-.49-2.59-.51-5.27-1.13-7.75-.48-1.93-.85-3.81-1.14-5.68-.72-4.67-1.72-9.39-2.98-14.15-1.05-3.96-1.8-7.67-2.25-11.14-.49-3.7-.96-7.46-1.44-11.29-.69-5.36-2.39-12.55-5.14-21.54-2.66-8.74-5.59-17.95-8.76-27.62-1.88-5.7-3.56-11.83-5.04-18.36-3.62-15.96-7.44-30.18-11.46-42.64-13.66-42.34-29.71-82.25-48.15-119.7-3.4-6.94-7.69-14.55-12.85-22.83-11.3-18.13-22.06-35-32.28-50.64-7.41-11.31-15.44-22.19-24.1-32.62-2.56-3.1-5.56-6.36-9.01-9.8-6.63-6.66-12.92-13.62-19.9-20.02-3.81-3.49-7.62-6.7-11.44-9.64-8.91-6.88-18.06-13.49-27.44-19.84-.61-.41-.81-1.19-.5-1.83,1.79-3.69,3.32-6.98,4.57-9.88,5.16-11.91,10.27-23.92,15.33-36.02,3.58-8.55,6.13-17.43,9.85-25.91,5.26-12.02,9.29-22.11,12.08-30.27,7.46-21.79,14.53-47.75,21.21-77.9,3.01-13.63,3.81-27.19,2.29-40.85-.57-5.09-1.02-9.91-1.88-14.74-.21-1.11-.35-2.23-.45-3.35-2.32-26.17-4.55-49.72-6.68-70.64-.91-8.9-1.96-18.07-3.18-27.5-2.06-16.04-13.85-53.36-15.49-56.14-7.6-12.89-16.71-25.15-27.33-36.73-18.17-19.82-37.38-39.5-57.82-56.71-6.35-5.34-13.77-10.83-22.27-16.49-31.18-20.77-65.69-37.47-101.69-47.75-6.01-1.72-12.05-3.42-18.13-5.1-2.26-.62-4.66-1.07-7.21-1.34-2.71-.28-5.6-.69-8.66-1.21-18.1-3.1-32.57-5.16-43.38-6.18C471.84,1.24,451.29.31,426.69.01c-26.77-.33-52.15,5.14-76.13,16.41-9.86,4.63-18.5,9.36-25.93,14.2-11.25,7.33-20.78,12.66-33.05,21.5-.77.71-31.31,24.85-31.94,25.26-6.81,6.44-13.72,12.77-20.73,19.01-5.65,5.01-13.94,13.41-24.87,25.24-9.69,10.48-19.21,21.1-28.57,31.86-5.53,6.35-11.58,12.22-16.15,19.15-4.01,6.09-9.3,11.97-12.28,18.52-4.22,9.28-7.66,19.37-10.31,30.27-2.19,8.98-3.77,16.71-4.74,23.19-.31,2.07-.62,4.05-.93,5.92-.71,4.33-.76,8.76-1.48,13.01-.4,2.4-.65,4.64-.76,6.7-.5,9.97-.55,20.96-.16,32.97.35,10.84-.02,24.13-1.1,39.89-.46,6.56-.56,14.96-.29,25.23.12,4.47.89,8.64,1.39,12.99.41,3.49,2,6.62,2.45,10.17.8,6.22,1.63,11.71,2.5,16.46,3.6,19.69,9.83,39.07,18.71,58.16,8.87,19.1,17.9,38.27,27.07,57.48,5.41,11.34,11.7,21.71,17.32,33.1.39.78.2,1.72-.46,2.28-5.17,4.46-10.27,9.38-15.28,14.75-7.77,8.32-16.11,15.6-24.74,23.07-1.53,1.32-3,2.68-4.21,4.32-7.94,10.88-16.94,22.53-27.01,34.93-3.64,4.48-9.92,13.51-18.83,27.1-2.92,4.45-6.29,10.1-10.11,16.95-6.79,12.15-13.74,24.29-20.84,36.42-7.84,13.37-14.29,28.18-19.33,44.44-1.47,4.7-3.15,11.12-5.06,19.26-3.59,15.33-7.62,30.93-12.09,46.8-5.37,19.09-9.02,38.59-14.95,57.51-3.75,11.94-7.88,24.44-10.46,36.99-2.5,12.14-4.96,25.01-7.37,38.62-1.98,11.17-5.62,28.93-10.94,53.25-1.53,7.03-3.26,14.2-5.03,21.4h17c.68-2.8,1.36-5.6,2.04-8.39,1.61-6.61,3.08-12.93,4.42-18.96,3.52-15.88,6.61-31.28,9.25-46.19,2.22-12.55,4.63-25.05,7.21-37.52.6-2.94,1.33-5.89,2.16-8.85,4.18-14.93,9.21-29.89,12.98-45.46,1.88-7.78,3.65-15.35,5.28-22.73,2.17-9.77,5.16-19.58,7.47-29.02,2.66-10.8,5.35-21.66,7.86-32.98,2.83-12.87,6.63-25.46,11.4-37.78,4.01-10.38,8.27-19.58,14.99-28.11.74-2.85,2.02-5.83,3.83-8.95,6.94-11.96,13.58-22.41,19.95-31.35,5.62-7.89,10.53-14.91,14.75-21.04,7.14-10.38,13.59-20.78,22.38-30.23,5.69-6.1,10.96-12.49,16.8-18.72,9.48-10.13,18.99-20.13,28.51-30.01,1.77-1.83,3.54-2.44,5.31-1.81.34.12.67.12,1.02,0,.48-.17.92-.43,1.29-.77.44-.41.83-.37,1.19.1,5.46,7.08,10.26,14,14.43,20.74,4.87,7.89,10.79,14.51,15.89,21.49,5.1,7.01,10.37,14.12,15.8,21.33l5.38,5.22c.34.33.44.81.3,1.25-5.53,15.87-11.41,31.63-17.51,47.23-7.62,19.47-12.6,39.46-14.94,59.96-.41,3.53.1,7.43,1.49,11.7,4.87,14.85,10.33,29.63,18.23,42.89,2.69,4.5,5.74,8.17,10.62,10.48,0,0,5.03,7.26,30.09,4.57-.08.11-.2.25-.38.4-1.1.96-2.03,2.07-2.81,3.33-2.37,3.89-5.39,6.92-8.02,10.61-6.7,9.41-13.3,18.87-19.77,28.39-.66.95-1.36,1.75-2.12,2.41-5.54,10.2-11.22,20.31-17.06,30.32-3.2,5.5-5.73,10.35-7.59,14.54-4.59,10.36-10.45,20.37-14.64,30.6-2.92,7.15-5.74,14.25-8.77,21.26-5.39,12.5-9.41,25.07-14.16,37.62-4.04,10.67-7.56,21.51-10.63,32.42h7.65c5.25-17.49,11.83-34.6,18.04-51.6,2.26-6.17,4.55-12.01,6.87-17.52,4.76-11.36,9.14-23.11,14.77-34.12,5.14-10.03,9.25-20.7,15.14-30.77,2.55-4.38,5.08-8.88,7.56-13.52,2.44-4.55,5.01-9.04,7.71-13.43,8.35-12.89,17.06-25.51,26.11-37.89.97-1.32,1.94-2.64,2.89-3.96,1.79-2.46,4.16-5.25,7.13-8.37,1.14-1.2,2.45-1.98,3.94-2.34,1.01-.23,2.05-.46,3.13-.69.07-.04.14-.09.2-.13,1.42-.29,2.86-.6,4.37-.94,42.2-9.64,179.92-30.69,208.06-24.98,17.82,3.62,70.67,12.78,115.74,14.56.18.22.33.46.47.71,2.92,5.6,6.21,11.1,8.91,16.64,4.52,9.31,8.54,16.93,12.06,22.86,2.62,4.43,4.52,7.79,5.72,10.07,3.89,7.32,7.71,14.72,11.46,22.2,2.62,5.24,5.63,11.1,9.03,17.57,9.36,17.84,16.53,36.24,25.01,54.23,3.39,7.2,6.21,13.88,8.44,20.05,4.54,12.58,9.23,24.95,14.08,37.1,3.14,7.85,5.74,15.98,7.98,24.27h6.64c-2.61-9.81-5.85-19.14-9.59-28.49-3.67-9.19-7.35-18.33-10.69-27.86-3.44-9.8-8.23-21.26-14.36-34.38-3.4-7.28-7.94-17.57-13.62-30.88-1.77-4.12-6.04-12.68-12.82-25.68-4.84-9.26-9.63-18.74-14.37-28.47l-27.54-49.73c23.34.52,43.89-1.2,55.34-7.06.01,0,.02-.01.03-.02,5.88-2.13,11.14-5.67,16.28-9.52,1.07-.8,2.05-1.64,2.98-2.52,13.47-11.42,15.09-25.25,8.32-55.56-.77-5.41-2.12-10.93-4.07-16.58-.38-1.44-.75-2.88-1.13-4.3-.53-2.39-1.1-5.03-1.92-7.34-2.09-7.89-4.05-15.31-5.9-22.21-2.82-11.78-5.79-22.42-8.98-34.21l-2.7-8.94c-.94-3.42-1.72-6.24-2.33-8.42.02-.43.12-.84.3-1.24,2.87-6.13,6.14-12.72,9.8-19.77.71-1.35,1.45-2.74,2.22-4.17.71-1.31,1.48-2.58,2.32-3.81,4.24-6.23,8.12-12.52,11.64-18.84.18-.33.32-.68.42-1.06.12-.45.67-.62,1.03-.31,7.14,6.15,14.46,11.72,21.25,18.52,6.08,6.09,12.59,11.62,18.35,17.78,6.19,6.62,11.67,12.69,16.43,18.2,8.12,9.4,15.94,19.83,23.5,31.28,11.97,18.15,24.03,35.86,35.06,54.38,3.7,6.22,6.1,11.62,7.18,16.2.82,1.34,1.81,2.83,2.96,4.49,1.17,1.69,2.14,3.19,2.92,4.51,6.66,11.26,12.2,21.84,16.62,31.73,6.92,15.49,14.22,36.84,21.68,55.16,5.3,13.03,10.49,26.03,15.56,39.02,1.91,4.92,3.65,9.73,5.22,14.43,1.48,4.44,2.86,9.59,4.13,15.47,5.53,25.42,11.12,50.44,17.25,75.69,3.78,15.59,7.07,31.4,9.88,47.43.45,2.51,1.62,4.87,2.16,7.08h14.7c-.35-2.16-.77-4.32-1.08-6.51Zm-249.5-309.86l5.32,23.89v.03c1.43,4.79,2.61,9.39,3.54,13.82.6,2.86-.24,7.16-1.69,9.94-2.49,4.78-4.77,8.8-10.38,10.3-9.27,2.48-16.39,3.94-21.34,4.37-5.03.43-9.82,1.02-14.38,1.77-1.48.25-4.38.55-8.69.91-2.26.19-4.43.13-6.49-.17-5.14-.77-10.23-.89-15.37-1.75-3.96-.67-7.93-.37-11.99-1.08-5.59-.97-10.77-2.11-15.5-3.43-2.11-.58-4.18-.85-6.2-.8-3.54.09-6.8-.94-10.29-1.16-4.14-.27-8.1-.68-11.9-1.2-2.68-.37-5.37-.7-8.06-.99-3.07-.31-6.17-.91-9.3-1.77-3.33-.91-21.92-3.63-22.91-3.71-3.86-.32-45.75-2.14-56.79-.71-6.63.86-14.2.31-21.27.97-7.4.68-33.67,3.37-39.48,4.13-5.68.73-11.09,1.59-16.25,2.58-1.73.34-3.41.66-5.05.96-12.03,2.28-27.14,5.63-45.31,10.08-5.52,1.35-10.64,2.61-15.37,3.77-9.06,2.24-17.84,4.39-26.35,6.48-.21.05-17.75,4.23-32.33,5.93-5.32.27-10.87.16-16.34.09-10.92-3.01-20.27-33.62-20.27-33.62l-1.29-2.95c-2.04-5.29-3.13-11.55-2.51-16.55,2.12-17.26,7.27-34.83,13.53-52.12,7.83-21.61,15.39-43.96,22.69-67.05,4.41-13.88,8.48-31.23,12.14-42.05,8.96-26.59,18.65-54.27,24.87-82.21.14-.62.66-1.1,1.29-1.18,1.71-.22,3.42-.53,5.15-.94,16.8-3.99,33.09-7.89,49.22-12.93,16.16-5.05,31.8-12.18,47.12-19.93,4.63-2.34,9.09-4.94,13.34-7.78,5.73-3.84,11.12-.31,16.41,2.29,1.93.95,2.23,2.61,3.95,3.5,4.67,2.42,9.49,2.77,14.48,1.06,6.06-2.08,11.85-4.79,17.36-8.12,2.01-1.2,4.44-1.87,6.81-1.5,13.29,2.14,24.39,4.68,33.27,7.62,5.62,1.86,10.11,3.16,13.49,3.92,4.93,1.12,9.53,2.44,13.79,3.98,2.6.94,5.38.59,7.76,1.78,2.64,1.32,5.15,2.08,7.56,2.26,5.76.44,11.53.95,17.33,1.53,2.67.28,5.42.81,8.21,1.61,7.44,2.13,15.04,3.27,22.87,4.5,3.53.56,7.14.68,10.83.38,2.3-.19,4.26.11,5.89.91,3.73,1.84,4.9,3.62,6.29,7.48,12.1,33.51,20.1,57.05,24,70.64,5.06,17.65,9.11,31.2,12.12,40.64,5.54,17.36,11.11,34.82,16.72,52.38,5.74,17.96,10.98,37.69,15.75,59.2Zm14.99-186.19c-3.96,6.08-7.59,12.75-11.73,19.02-3.65,5.52-7.55,11.35-11.7,17.5-3.07,4.56-5.74,9.82-8.65,14.71-.96,1.61-1.6,1.49-1.93-.36-.31-1.68-1.34-2.96-1.9-4.57-1.21-3.49-2.45-7.14-4.18-10.44-3.91-7.53-7.34-15.06-10.26-22.58-1.93-4.95-3.72-8.95-5.39-11.99-2.12-3.86-4.25-7.69-6.37-11.48-2.32-4.16-3.84-8.97-4.56-14.44-2.01-3.25-3.87-6.93-5.57-11.03-1.27-3.07.42-4,.44-6.74.04-4.05-1.12-8.91-4.28-11.49-.29-.23-.62-.37-1.01-.4-3.01-.29-5.38-1.21-8.56-.87-6.46.69-11.14.98-14.04.86-5.94-.23-12.65-1.15-20.13-2.75-8.66-1.85-17.3-3.8-25.93-5.87-5.48-1.3-11.23-2.27-16.71-3.36-3.71-.73-7.34-1.73-10.87-2.98-3.48-1.24-7.34-2.41-11.57-3.53-3.45-.9-7.59-2.31-12.43-4.24-2.76-1.09-5.96-1.89-8.94-2.43-5.83-1.03-13.35-1.97-22.57-2.81-2.56-.23-5.04-.23-7.41,0-5.12.49-10.97.24-15.13,3.61-2.92,2.37-6,3.46-9.59,3.91-1.5.18-2.8.07-3.92-.34-4.35-1.57-8.84-3.19-13.47-4.86-6.5-2.33-11.17-1.93-17.25.39-2.12.8-4.27,1.81-6.43,3.03-14.17,7.98-24.95,13.41-32.32,16.28-10.37,4.02-23.95,8.2-40.77,12.52-3.23.83-9.5,2.04-18.81,3.63-6.36,1.08-12.61,2.42-18.74,4.03-4.07,1.06-6.34,5.53-7.63,9.43-1.68,5.07-3.75,9.81-6.23,14.24,1.98.08,2.6,1.11,1.85,3.12-.13.35-.17.72-.11,1.09.79,4.82,1.82,10.5.47,15.13-.62,2.15-1.76,4.54-3.38,7.16-3.09,4.94-5.83,12.37-7.58,16.13-3.32,7.12-6.8,13.68-9.17,21.87-1.01,3.51-2.17,6.94-3.48,10.29-1.63,4.15-3.06,8.47-4.3,12.96-.6,2.17-1.75,3.73-1.61,6.15.03.5-.16.62-.59.33-1.13-.74-1.64-1.96-2.58-2.96-7.89-8.46-15.21-16.15-21.94-23.05-2.77-2.84-7.03-8.11-12.79-15.83-8.05-10.8-15.5-19.38-22.36-25.75-2.35-2.17-3.4-4.41-4.84-7.07-14.61-26.92-28.54-53.89-39.73-81.7-2.81-6.99-5.48-14.85-8-23.55-1.4-4.85-2.78-10.3-4.15-16.34-1.26-5.57-2.28-11.08-3.06-16.5-1.06-7.28-2.14-14.34-3.26-21.16-.54-3.34-.54-6.81-1.32-10.11-.31-1.3-.5-2.65-.56-4.06-.35-8.43-.12-18.15.7-29.17.37-5.12.59-10.49.64-16.13.05-5.34.25-10.55.62-15.64.72-9.85,1.1-20.14,1.13-30.87.02-3.38.82-6.68.85-10.12.05-6.71.4-13.5,1.04-20.35.58-6.26,1.66-12.18,3.22-17.76,1.76-6.29,3.7-12.34,5.83-18.14,1.59-4.32,3.5-8.32,5.72-11.99,7.85-12.99,16.22-24.26,25.09-33.81,9.51-10.24,18.92-20.27,28.23-30.08,6.25-6.58,12.31-12.46,18.2-17.63,13.61-11.96,28.56-24.35,44.87-37.16,8.37-6.59,17.22-13.27,26.54-20.05,7.01-5.11,14.02-9.84,21.04-14.21,10.03-6.26,21.28-11.73,33.76-16.42,14.82-5.56,29.77-8.76,44.89-9.6,8.26-.46,19.17-.44,32.74.04,11.5.41,23.23,1,35.19,1.76,8.65.54,19.15,1.84,31.46,3.86,12.2,2.01,18.7,3.08,19.5,3.22,13.65,2.51,25.61,5.38,35.86,8.6,37.8,11.85,73.04,29.86,105.68,54,3.17,2.34,6.47,5.01,9.91,8,4.35,3.77,8.76,7.48,12.88,11.4,16.44,15.59,33.68,33.43,51.73,53.54,6.23,6.92,10.87,12.67,13.92,17.24,1.95,2.91,3.72,6.51,5.31,10.77,2.05,5.49,3.67,11.04,4.86,16.66.7,3.35,1.69,6.66,2.53,9.95,1.12,4.37,3.02,10.06,5.7,17.07.85,2.22,1.36,5.02,1.55,7.39.41,5.31.94,10.99,1.57,17.05,1.39,13.32,2.73,26.14,4.03,38.46.28,2.69.56,5.53.84,8.54.41,4.63,1.42,9.11,1.7,13.73.22,3.39.61,6.88,1.17,10.47.62,4,.49,8.11,1.38,12.1.77,3.51.71,7.09,1.41,10.6.48,2.35.71,4.83.7,7.44,0,3.41.07,6.7-.4,10.08-1.22,8.73-2.66,16.22-4.28,22.45-5.66,21.56-11.26,41.55-16.8,60-4.68,15.59-10.87,31.26-18.57,47.02-.6,1.22-1.32,2.24-2.17,3.04-1.25,1.19-2.46,2.14-3.29,3.68-5.49,10.16-9.62,17.16-12.4,20.97-2.53,3.5-4.89,6.92-7.05,10.25Zm64.88,490.9c-.61-11.49-1.83-22.56-3.69-33.24-.74-4.24-1.32-8.17-1.75-11.81-.5-4.16-1.03-8.1-1.59-11.85-1.16-7.66-1.79-14.47-2.37-21.91-.61-7.78-.14-15.74-1.71-23.23-.93-4.37-1.63-8.8-2.98-13.23-.99-3.23-1.83-6.53-2.51-9.89,0-.07-.31-1.31-.87-3.75-.52-2.21-.81-4.63-.86-7.27-.03-1.26-.65-2.09-1.87-2.48-2.34-.76-4.47.9-6.4,4.99.02,1.11-.03,2.48-.16,4.09-.11,1.45-.1,2.81.04,4.09.64,5.89.91,11.72.81,17.48-.18,10.8.34,20.62.16,31.56-.2,12.17.26,25.77,1.37,40.8.62,8.43.8,16.71,1.34,25.67.45,7.23.71,14.44.8,21.64h24.03c-.04-.19-.07-.39-.11-.58-1.02-5.37-1.59-9.06-1.68-11.08Zm-642.78-154.03l-2.91.56c-1,.19-1.85.84-2.29,1.74-1.21,2.43-1.56,5.07-2.6,7.55-.56,1.36-1.1,2.43-1.4,3.91-1.4,6.83-1.44,13.93-2.61,20.66-.48,2.76-.97,5.47-1.48,8.12-.52,2.71-1.13,5.41-1.83,8.08-2.28,8.7-4.67,17.57-7.16,26.63-.58,2.13-.99,4.18-1.24,6.17-.34,2.88-1.31,5.41-1.57,8.41-.29,3.19-.71,6.33-1.27,9.42-.53,3-.26,6.07-.75,9.02-.59,3.52-.91,6.94-.95,10.26-.03,2.68-.29,5.31-.8,7.93-.62,3.25-.92,6.59-.91,10.02.02,4.9-1.35,9.46-1.49,14.3-.11,4.34-.35,8.64-.7,12.91h30.18c.11-1.29.2-2.61.28-3.97.29-4.96,1.25-9.9,1.47-14.88.28-6.15,1.35-12.22,1.63-18.53.32-6.97.69-14.3,1.11-21.98.49-8.68.45-17.38.32-26.01-.03-1.57-.37-3.13-.39-4.68-.21-22.85-.26-45.12-.15-66.78.01-1.32.27-2.78.8-4.4.1-.32.07-.61-.1-.9-.83-1.41-1.9-2.6-3.19-3.56Z"/>
      <path class="cls-1" d="m221.13,261.89c5.99-.71,10.47,1.34,13.44,6.17l-1.26.88c-5.87-2.24-12.1-1.04-18.67,3.66-2.91,2.37-5.59,2.1-8.06-.8-1.36-1.9-.86-4.04,1.49-6.48,4.4-2.18,8.75-3.33,13.06-3.43h0Z"/>
      <path class="cls-1" d="m242.74,283.11s7.3,1.19,11.76,2.12c4.21.8,8.48,1.59,12.8,2.34,4.79.82,9.05,2.12,12.82,3.91,14.49,6.88,27.94,15.36,40.28,25.5,16.41,13.43,30.08,26.58,41.01,39.39,7.07,8.26,15.89,12.11,24.34,18.52.79.59,1.36.45,1.73-.46l2.06-5.04c.31-.71.84-1.04,1.63-.98l2.03.19c.92.08,1.53-.33,1.86-1.18,1.38-3.63,3.39-6.88,6.01-9.75.63-.69,1.74-.47,2.1.39.51,1.25.8,2.61.86,4.06.12,2.39-1.12,7.53-3.71,15.38-.04.12-.02.19.06.21l.47.1c.12.02.19-.02.23-.12l5.87-14.91c.21-.51.57-.71,1.11-.57l2.72.71c.79.21,1.08.71.84,1.49-1.8,6.32-3.46,12.75-5.02,19.28-1,4.2-2.97,7.51-4.34,11.48-.23.69-.67,1.21-1.32,1.55-1.89,1.02-4.2,1.32-6.91.92-.67-.1-1.2-.42-1.63-.94-1.34-1.73-2.39-3.16-4.59-3.96-2.89-1.06-10.86-5.27-11.84-5.48-4.89-2.93-9.7-5.79-14.45-8.59-1.08-.63-2.05-.44-2.91.59-.4.47-.88.8-1.47,1.02-3.48,1.21-6.89,2.32-10.23,3.37-9.38,2.95-22.07,2.74-30.49.63-6.03-1.49-10.95-5.16-14.76-10.96-6.79-10.36-5.28-19.81,4.54-28.35l5.82-3.87c.61-.42.65-.9.14-1.42-5.65-5.59-11.25-11.42-16.85-17.46-3.89-4.2-8.33-8.28-13.33-12.2-8.14-6.42-13.37-10.08-15.7-11.02-14.57-5.81-29.9-9.58-45.98-11.3l-5.52-3.63c-.94-.61-.63-2.05.47-2.24,9.67-1.63,17.42-.24,27.47,1.27h.02Zm89.62,82.01l-14.51-9.12c-.55-.37-1.17-.43-1.8-.21-5.57,2.02-5.95,8.89-1.93,12.59,6.95,6.36,17.21,6.8,25.88,3.49.71-.29.79-.67.19-1.17-.75-.67-7.83-5.57-7.83-5.57h0Z"/>
      <path class="cls-1" d="m729.02,316.84c-.27.27-.53.46-.8.55-.73.29-1.18.06-1.4-.69-.17-.59-.14-1.23.08-1.94,1.4-2.28,1.74-4.59,1.06-6.94-.23-.75-1.1-1.1-1.76-.71-8.46,4.81-12.65,8.06-21.22,12.86-2.28,1.1-14.17,7.26-14.17,7.26-11.8,5.94-23.78,11.79-35.97,17.54-1.92.88-4.34,3.68-5.28,5.81-2.83,6.4-4.85,10.47-9.65,16.64,0,0-3.62,4.51-5.45,6.29-7.99,7.84-15.93,12.65-23.85,14.4-7.07,1.57-15.14.92-24.24-1.96-1.43-1.13-2.73-2.82-3.91-5.04-.47-.92-1.67-1.24-2.55-.67-8.98,5.79-17.55,11.42-25.72,16.91-3.45,2.32-6.85,5.75-10.23,10.29-.42.57-.98.94-1.67,1.11-5.8,1.32-12.6-5.48-12.47-11.04.04-1.55-.25-2.93-.84-4.14-2.77-5.63-4.36-10.4-4.79-14.33v-.55c.4-1.02.92-1.88,1.53-2.55.44-.47.98-.77,1.61-.86,1.02-.17,1.9-.59,2.67-1.23.49-.42.8-.96.9-1.59.29-1.78.65-3.51,1.08-5.2.69-2.74,2.2-3.57,4.54-2.45l1.8,2.1-.77,10.83c-.08,1.18.34,1.42,1.28.69l1.76-1.38c1.26-1,3.08-.04,3,1.55-.39,6.97,1.61,9.69,5.95,8.16,5.97-3.7,10.8-8.81,16.37-12.18,14.17-8.57,27.66-18.01,41.8-25.75,14.34-7.84,28.18-15.2,41.54-22.03,9.03-4.63,18.57-8.18,28.07-12.53,10.75-4.94,21.77-9.29,33.04-13.03,7.15-2.38,14.61-3.68,22.14-3.88,1-.02,1.93.38,2.59,1.13,1.71,1.96,1.69,4.47-.1,7.51-2.12,3.68-4.12,7.36-5.99,11.02h.01Zm-95.14,37.22c-11.78,5.55-22.46,13.62-33.67,19.93-.96.51-.9.75.19.67,6.72-.47,11.13-1.45,13.21-2.93,7.11-5.02,13.96-10.77,20.56-17.26.67-.67.57-.8-.29-.41Z"/>
    </g>
  </g>
</svg>